<svg
 xmlns="http://www.w3.org/2000/svg"
 viewBox="0 0 24 24">

<path d="M12+20.0701C14.2086+20.0701+16.0959+19.267+17.662+17.6608C19.228+16.0545+20.0311+14.1672+20.0713+11.9988C20.1115+9.83038+19.3083+7.94308+17.662+6.33683C16.0156+4.7306+14.1282+3.92748+12+3.92748C9.87176+3.92748+7.9844+4.7306+6.33803+6.33683C4.69165+7.94308+3.88853+9.83038+3.92868+11.9988C3.96884+14.1672+4.77196+16.0545+6.33803+17.6608C7.90411+19.267+9.79141+20.0701+12+20.0701ZM12+2C14.7708+2+17.1399+2.96374+19.1076+4.89122C21.0752+6.8187+22.039+9.18787+21.9988+11.9988C21.9586+14.8097+20.9949+17.1789+19.1076+19.1064C17.2203+21.0339+14.851+21.9976+12+21.9976C9.14896+21.9976+6.77973+21.0339+4.89242+19.1064C3.0051+17.1789+2.04136+14.8097+2.0012+11.9988C1.96105+9.18787+2.92479+6.8187+4.89242+4.89122C6.86008+2.96374+9.22925+2+12+2ZM18.3593+8.1663L13.0124+10.167C12.3898+9.83141+11.6289+9.79213+10.9711+10.172C9.96235+10.7545+9.61643+12.0441+10.1985+13.0524C10.7806+14.0608+12.0703+14.4059+13.0791+13.8235C13.7368+13.4436+14.0833+12.765+14.104+12.0579C15.6175+10.8142+17.9591+8.87989+18.5098+8.42712C18.6414+8.319+18.5187+8.10643+18.3593+8.1663Z" fill="White"/>

</svg>
