<svg
 xmlns="http://www.w3.org/2000/svg"
 viewBox="0 0 24 24">

<path d="M12+20.0701C9.79141+20.0701+7.90411+19.267+6.33803+17.6608C4.77196+16.0545+3.96886+14.1672+3.92868+11.9988C3.88851+9.83038+4.69166+7.94308+6.33803+6.33683C7.9844+4.7306+9.87176+3.92748+12+3.92748C14.1282+3.92748+16.0156+4.7306+17.662+6.33683C19.3083+7.94308+20.1115+9.83038+20.0713+11.9988C20.0311+14.1672+19.228+16.0545+17.662+17.6608C16.0959+19.267+14.2086+20.0701+12+20.0701ZM12+2C9.22925+2+6.86008+2.96374+4.89242+4.89122C2.92477+6.8187+1.96103+9.18787+2.00121+11.9988C2.04138+14.8097+3.00512+17.1789+4.89242+19.1064C6.77973+21.0338+9.14896+21.9976+12+21.9976C14.851+21.9976+17.2203+21.0338+19.1076+19.1064C20.9949+17.1789+21.9586+14.8097+21.9988+11.9988C22.039+9.18787+21.0752+6.8187+19.1076+4.89122C17.1399+2.96374+14.7708+2+12+2ZM5.64072+8.1663L10.9876+10.167C11.6102+9.8314+12.3711+9.79213+13.0289+10.172C14.0376+10.7545+14.3836+12.0441+13.8015+13.0524C13.2194+14.0608+11.9297+14.4059+10.9209+13.8235C10.2632+13.4436+9.9167+12.765+9.89604+12.0579C8.38254+10.8142+6.0409+8.87989+5.49015+8.42712C5.35861+8.319+5.48131+8.10643+5.64072+8.1663Z" fill="White"/>

</svg>
